<mxfile host="app.diagrams.net" agent="Mozilla/5.0 (Windows NT 10.0; Win64; x64) AppleWebKit/537.36 (KHTML, like Gecko) Chrome/135.0.0.0 Safari/537.36" version="26.2.14">
  <diagram name="Página-1" id="Bpu6t88huXsFQcs7zz0J">
    <mxGraphModel dx="2069" dy="742" grid="1" gridSize="10" guides="1" tooltips="1" connect="1" arrows="1" fold="1" page="1" pageScale="1" pageWidth="827" pageHeight="1169" math="0" shadow="0">
      <root>
        <mxCell id="0" />
        <mxCell id="1" parent="0" />
        <mxCell id="AhbsJZ_cpBZW2RgloWND-2" value="SISTEMA" style="swimlane;whiteSpace=wrap;html=1;" parent="1" vertex="1">
          <mxGeometry x="220" y="190" width="400" height="600" as="geometry">
            <mxRectangle x="220" y="190" width="90" height="30" as="alternateBounds" />
          </mxGeometry>
        </mxCell>
        <mxCell id="AhbsJZ_cpBZW2RgloWND-6" value="Registro en aplicación" style="ellipse;whiteSpace=wrap;html=1;" parent="AhbsJZ_cpBZW2RgloWND-2" vertex="1">
          <mxGeometry x="140" y="50" width="120" height="80" as="geometry" />
        </mxCell>
        <mxCell id="AhbsJZ_cpBZW2RgloWND-7" value="Selección de&amp;nbsp; artículos del carro" style="ellipse;whiteSpace=wrap;html=1;" parent="AhbsJZ_cpBZW2RgloWND-2" vertex="1">
          <mxGeometry x="139.5" y="160" width="120" height="80" as="geometry" />
        </mxCell>
        <mxCell id="AhbsJZ_cpBZW2RgloWND-10" value="Modelos disponibles" style="ellipse;whiteSpace=wrap;html=1;" parent="AhbsJZ_cpBZW2RgloWND-2" vertex="1">
          <mxGeometry x="139.5" y="270" width="120" height="80" as="geometry" />
        </mxCell>
        <mxCell id="AhbsJZ_cpBZW2RgloWND-9" value="Reserva de artículos" style="ellipse;whiteSpace=wrap;html=1;" parent="AhbsJZ_cpBZW2RgloWND-2" vertex="1">
          <mxGeometry x="140" y="380" width="120" height="80" as="geometry" />
        </mxCell>
        <mxCell id="AhbsJZ_cpBZW2RgloWND-8" value="Sistema de pago&lt;div&gt;/&lt;br&gt;&lt;div&gt;Crear factura&lt;/div&gt;&lt;/div&gt;" style="ellipse;whiteSpace=wrap;html=1;" parent="AhbsJZ_cpBZW2RgloWND-2" vertex="1">
          <mxGeometry x="140" y="490" width="120" height="80" as="geometry" />
        </mxCell>
        <mxCell id="AhbsJZ_cpBZW2RgloWND-3" value="Cliente" style="shape=umlActor;verticalLabelPosition=bottom;verticalAlign=top;html=1;outlineConnect=0;" parent="1" vertex="1">
          <mxGeometry x="-80" y="320" width="155" height="310" as="geometry" />
        </mxCell>
        <mxCell id="AhbsJZ_cpBZW2RgloWND-4" value="Sistema" style="shape=umlActor;verticalLabelPosition=bottom;verticalAlign=top;html=1;outlineConnect=0;" parent="1" vertex="1">
          <mxGeometry x="760" y="320" width="155" height="310" as="geometry" />
        </mxCell>
        <mxCell id="AhbsJZ_cpBZW2RgloWND-5" value="Auditor Externo" style="shape=umlActor;verticalLabelPosition=bottom;verticalAlign=top;html=1;outlineConnect=0;" parent="1" vertex="1">
          <mxGeometry x="650" y="560" width="90" height="180" as="geometry" />
        </mxCell>
        <mxCell id="AhbsJZ_cpBZW2RgloWND-11" value="" style="endArrow=none;html=1;rounded=0;exitX=1;exitY=0.3333333333333333;exitDx=0;exitDy=0;exitPerimeter=0;entryX=0;entryY=0.5;entryDx=0;entryDy=0;" parent="1" source="AhbsJZ_cpBZW2RgloWND-3" target="AhbsJZ_cpBZW2RgloWND-6" edge="1">
          <mxGeometry width="50" height="50" relative="1" as="geometry">
            <mxPoint x="330" y="180" as="sourcePoint" />
            <mxPoint x="430" y="180" as="targetPoint" />
          </mxGeometry>
        </mxCell>
        <mxCell id="AhbsJZ_cpBZW2RgloWND-12" value="" style="endArrow=none;html=1;rounded=0;exitX=1;exitY=0.3333333333333333;exitDx=0;exitDy=0;exitPerimeter=0;entryX=0;entryY=0.5;entryDx=0;entryDy=0;" parent="1" source="AhbsJZ_cpBZW2RgloWND-3" target="AhbsJZ_cpBZW2RgloWND-7" edge="1">
          <mxGeometry width="50" height="50" relative="1" as="geometry">
            <mxPoint x="340" y="190" as="sourcePoint" />
            <mxPoint x="440" y="190" as="targetPoint" />
          </mxGeometry>
        </mxCell>
        <mxCell id="AhbsJZ_cpBZW2RgloWND-13" value="" style="endArrow=none;html=1;rounded=0;exitX=1;exitY=0.3333333333333333;exitDx=0;exitDy=0;exitPerimeter=0;entryX=0;entryY=0.5;entryDx=0;entryDy=0;" parent="1" source="AhbsJZ_cpBZW2RgloWND-3" target="AhbsJZ_cpBZW2RgloWND-10" edge="1">
          <mxGeometry width="50" height="50" relative="1" as="geometry">
            <mxPoint x="350" y="200" as="sourcePoint" />
            <mxPoint x="450" y="200" as="targetPoint" />
          </mxGeometry>
        </mxCell>
        <mxCell id="AhbsJZ_cpBZW2RgloWND-14" value="" style="endArrow=none;html=1;rounded=0;exitX=1;exitY=0.3333333333333333;exitDx=0;exitDy=0;exitPerimeter=0;entryX=0;entryY=0.5;entryDx=0;entryDy=0;" parent="1" source="AhbsJZ_cpBZW2RgloWND-3" target="AhbsJZ_cpBZW2RgloWND-9" edge="1">
          <mxGeometry width="50" height="50" relative="1" as="geometry">
            <mxPoint x="360" y="210" as="sourcePoint" />
            <mxPoint x="460" y="210" as="targetPoint" />
          </mxGeometry>
        </mxCell>
        <mxCell id="AhbsJZ_cpBZW2RgloWND-15" value="" style="endArrow=none;html=1;rounded=0;exitX=1;exitY=0.3333333333333333;exitDx=0;exitDy=0;exitPerimeter=0;entryX=0;entryY=0.5;entryDx=0;entryDy=0;" parent="1" source="AhbsJZ_cpBZW2RgloWND-3" target="AhbsJZ_cpBZW2RgloWND-8" edge="1">
          <mxGeometry width="50" height="50" relative="1" as="geometry">
            <mxPoint x="370" y="220" as="sourcePoint" />
            <mxPoint x="470" y="220" as="targetPoint" />
          </mxGeometry>
        </mxCell>
        <mxCell id="AhbsJZ_cpBZW2RgloWND-17" value="" style="endArrow=none;html=1;rounded=0;entryX=0;entryY=0.3333333333333333;entryDx=0;entryDy=0;entryPerimeter=0;exitX=1;exitY=0.5;exitDx=0;exitDy=0;" parent="1" source="AhbsJZ_cpBZW2RgloWND-7" target="AhbsJZ_cpBZW2RgloWND-4" edge="1">
          <mxGeometry width="50" height="50" relative="1" as="geometry">
            <mxPoint x="800" y="450" as="sourcePoint" />
            <mxPoint x="810" y="323" as="targetPoint" />
          </mxGeometry>
        </mxCell>
        <mxCell id="AhbsJZ_cpBZW2RgloWND-18" value="" style="endArrow=none;html=1;rounded=0;entryX=0;entryY=0.3333333333333333;entryDx=0;entryDy=0;entryPerimeter=0;exitX=1;exitY=0.5;exitDx=0;exitDy=0;" parent="1" source="AhbsJZ_cpBZW2RgloWND-10" target="AhbsJZ_cpBZW2RgloWND-4" edge="1">
          <mxGeometry width="50" height="50" relative="1" as="geometry">
            <mxPoint x="810" y="460" as="sourcePoint" />
            <mxPoint x="820" y="333" as="targetPoint" />
          </mxGeometry>
        </mxCell>
        <mxCell id="AhbsJZ_cpBZW2RgloWND-20" value="" style="endArrow=none;html=1;rounded=0;entryX=0;entryY=0.3333333333333333;entryDx=0;entryDy=0;entryPerimeter=0;exitX=1;exitY=0.5;exitDx=0;exitDy=0;" parent="1" source="AhbsJZ_cpBZW2RgloWND-9" target="AhbsJZ_cpBZW2RgloWND-5" edge="1">
          <mxGeometry width="50" height="50" relative="1" as="geometry">
            <mxPoint x="830" y="480" as="sourcePoint" />
            <mxPoint x="840" y="353" as="targetPoint" />
          </mxGeometry>
        </mxCell>
        <mxCell id="AhbsJZ_cpBZW2RgloWND-21" value="" style="endArrow=none;html=1;rounded=0;entryX=1;entryY=0.5;entryDx=0;entryDy=0;exitX=0;exitY=0.3333333333333333;exitDx=0;exitDy=0;exitPerimeter=0;" parent="1" source="AhbsJZ_cpBZW2RgloWND-5" target="AhbsJZ_cpBZW2RgloWND-8" edge="1">
          <mxGeometry width="50" height="50" relative="1" as="geometry">
            <mxPoint x="840" y="490" as="sourcePoint" />
            <mxPoint x="850" y="363" as="targetPoint" />
          </mxGeometry>
        </mxCell>
        <mxCell id="AhbsJZ_cpBZW2RgloWND-24" value="" style="curved=1;endArrow=none;html=1;rounded=0;startFill=0;" parent="1" source="AhbsJZ_cpBZW2RgloWND-4" edge="1">
          <mxGeometry width="50" height="50" relative="1" as="geometry">
            <mxPoint x="901.2121212121215" y="630" as="sourcePoint" />
            <mxPoint x="740" y="655" as="targetPoint" />
            <Array as="points">
              <mxPoint x="900" y="640" />
              <mxPoint x="890" y="650" />
              <mxPoint x="880" y="655" />
              <mxPoint x="860" y="655" />
              <mxPoint x="840" y="655" />
              <mxPoint x="790" y="655" />
            </Array>
          </mxGeometry>
        </mxCell>
      </root>
    </mxGraphModel>
  </diagram>
</mxfile>
